HIERARCHY
ROOT Hips
{
	OFFSET 0.000000 83.214638 0.000000
	CHANNELS 6 Xposition Yposition Zposition Xrotation Yrotation Zrotation
	JOINT Pelvis
	{
		OFFSET 0.000000 0.000000 0.000000
		CHANNELS 3 Xrotation Yrotation Zrotation
		JOINT LeftUpLeg
		{
			OFFSET 8.479700 -4.795502 -0.379100
			CHANNELS 3 Xrotation Yrotation Zrotation
			JOINT LeftLeg
			{
				OFFSET 0.024144 -32.555107 0.112900
				CHANNELS 3 Xrotation Yrotation Zrotation
				JOINT LeftFoot
				{
					OFFSET -0.024144 -32.638630 -3.012600
					CHANNELS 3 Xrotation Yrotation Zrotation
					JOINT LeftToeBase
					{
						OFFSET 0.970200 -13.225400 11.864200
						CHANNELS 3 Xrotation Yrotation Zrotation
						End Site
						{
							OFFSET 0.000000 12.319262 0.000000
						}
					}
					JOINT LFootTongue
					{
						OFFSET 1.142400 -1.059800 6.665200
						CHANNELS 3 Xrotation Yrotation Zrotation
						End Site
						{
							OFFSET 0.000000 12.319262 0.000000
						}
					}
				}
				JOINT LeftPantLeg
				{
					OFFSET 0.918482 -16.533964 -2.284700
					CHANNELS 3 Xrotation Yrotation Zrotation
					End Site
					{
						OFFSET 0.350399 24.744368 0.000000
					}
				}
			}
		}
		JOINT RightUpLeg
		{
			OFFSET -8.479700 -4.795502 -0.379100
			CHANNELS 3 Xrotation Yrotation Zrotation
			JOINT RightLeg
			{
				OFFSET -0.023144 -32.555092 0.112900
				CHANNELS 3 Xrotation Yrotation Zrotation
				JOINT RightFoot
				{
					OFFSET 0.023144 -32.638641 -3.012700
					CHANNELS 3 Xrotation Yrotation Zrotation
					JOINT RightToeBase
					{
						OFFSET -0.970200 -13.225400 11.864200
						CHANNELS 3 Xrotation Yrotation Zrotation
						End Site
						{
							OFFSET 0.000000 12.319244 0.000000
						}
					}
					JOINT RFootTongue
					{
						OFFSET -1.142200 -1.059800 6.665200
						CHANNELS 3 Xrotation Yrotation Zrotation
						End Site
						{
							OFFSET 0.000000 12.319243 0.000000
						}
					}
				}
				JOINT RightPantLeg
				{
					OFFSET -0.919482 -16.533978 -2.284800
					CHANNELS 3 Xrotation Yrotation Zrotation
					End Site
					{
						OFFSET -0.350400 24.744419 0.000000
					}
				}
			}
		}
	}
	JOINT Spine
	{
		OFFSET 0.000000 7.722000 1.166200
		CHANNELS 3 Xrotation Yrotation Zrotation
		JOINT Spine1
		{
			OFFSET 0.000000 12.024101 0.248800
			CHANNELS 3 Xrotation Yrotation Zrotation
			JOINT Spine2
			{
				OFFSET 0.000000 11.502998 -0.491200
				CHANNELS 3 Xrotation Yrotation Zrotation
				JOINT Neck
				{
					OFFSET 0.000000 18.430702 -3.123100
					CHANNELS 3 Xrotation Yrotation Zrotation
					JOINT Head
					{
						OFFSET 0.000000 9.051102 1.034000
						CHANNELS 3 Xrotation Yrotation Zrotation
						JOINT HairB
						{
							OFFSET 0.208400 24.786102 24.822300
							CHANNELS 3 Xrotation Yrotation Zrotation
							End Site
							{
								OFFSET 0.000000 32.263779 0.000000
							}
						}
						JOINT HairA
						{
							OFFSET -7.081100 24.428299 23.196600
							CHANNELS 3 Xrotation Yrotation Zrotation
							End Site
							{
								OFFSET 0.000000 32.263779 0.000000
							}
						}
						JOINT Hat
						{
							OFFSET 16.728800 15.048294 -15.439601
							CHANNELS 3 Xrotation Yrotation Zrotation
							End Site
							{
								OFFSET 0.000000 32.263779 0.000000
							}
						}
					}
				}
				JOINT LeftShoulder
				{
					OFFSET 6.197800 13.665199 -4.064700
					CHANNELS 3 Xrotation Yrotation Zrotation
					JOINT LeftArm
					{
						OFFSET 7.778100 -0.187103 -1.709300
						CHANNELS 3 Xrotation Yrotation Zrotation
						JOINT LeftForeArm
						{
							OFFSET 22.049376 0.000000 0.000000
							CHANNELS 3 Xrotation Yrotation Zrotation
							JOINT LeftHand
							{
								OFFSET 23.009392 0.000000 0.000000
								CHANNELS 3 Xrotation Yrotation Zrotation
								JOINT LeftHandThumb1
								{
									OFFSET 3.507191 -2.063065 3.133727
									CHANNELS 3 Xrotation Yrotation Zrotation
									JOINT LeftHandThumb2
									{
										OFFSET 3.101337 -1.790558 1.790558
										CHANNELS 3 Xrotation Yrotation Zrotation
										JOINT LeftHandThumb3
										{
											OFFSET 3.058640 -1.765907 1.765906
											CHANNELS 3 Xrotation Yrotation Zrotation
											End Site
											{
												OFFSET -0.415260 3.926476 -0.049563
											}
										}
									}
								}
								JOINT LeftHandIndex1
								{
									OFFSET 11.334419 -0.901459 3.706815
									CHANNELS 3 Xrotation Yrotation Zrotation
									JOINT LeftHandIndex2
									{
										OFFSET 3.283112 0.000000 0.000000
										CHANNELS 3 Xrotation Yrotation Zrotation
										JOINT LeftHandIndex3
										{
											OFFSET 3.323853 0.000000 0.000000
											CHANNELS 3 Xrotation Yrotation Zrotation
											End Site
											{
												OFFSET -1.135597 3.097809 0.402452
											}
										}
									}
								}
								JOINT LeftHandMiddle1
								{
									OFFSET 11.335861 0.000000 0.000000
									CHANNELS 3 Xrotation Yrotation Zrotation
									JOINT LeftHandMiddle2
									{
										OFFSET 3.410492 0.000000 0.000000
										CHANNELS 3 Xrotation Yrotation Zrotation
										JOINT LeftHandMiddle3
										{
											OFFSET 3.312172 0.000000 0.000000
											CHANNELS 3 Xrotation Yrotation Zrotation
											End Site
											{
												OFFSET -1.150200 3.080154 0.400270
											}
										}
									}
								}
								JOINT LeftHandRing1
								{
									OFFSET 11.514786 -0.013176 -3.003090
									CHANNELS 3 Xrotation Yrotation Zrotation
									JOINT LeftHandRing2
									{
										OFFSET 3.053307 0.000000 0.000000
										CHANNELS 3 Xrotation Yrotation Zrotation
										JOINT LeftHandRing3
										{
											OFFSET 3.295807 0.000000 0.000000
											CHANNELS 3 Xrotation Yrotation Zrotation
											End Site
											{
												OFFSET -1.281006 3.013344 0.375733
											}
										}
									}
								}
								JOINT LeftHandPinky1
								{
									OFFSET 10.518692 -0.960396 -5.730441
									CHANNELS 3 Xrotation Yrotation Zrotation
									JOINT LeftHandPinky2
									{
										OFFSET 2.861649 0.000000 0.000000
										CHANNELS 3 Xrotation Yrotation Zrotation
										JOINT LeftHandPinky3
										{
											OFFSET 2.863380 0.000000 0.000000
											CHANNELS 3 Xrotation Yrotation Zrotation
											End Site
											{
												OFFSET -0.843597 2.711159 0.369971
											}
										}
									}
								}
							}
							JOINT LSleeve
							{
								OFFSET 6.676277 -0.344902 -1.011730
								CHANNELS 3 Xrotation Yrotation Zrotation
								End Site
								{
									OFFSET 0.000000 14.885353 0.000000
								}
							}
						}
					}
				}
				JOINT RightShoulder
				{
					OFFSET -6.197800 13.665199 -4.064700
					CHANNELS 3 Xrotation Yrotation Zrotation
					JOINT RightArm
					{
						OFFSET -7.778100 -0.187103 -1.709300
						CHANNELS 3 Xrotation Yrotation Zrotation
						JOINT RightForeArm
						{
							OFFSET -22.049376 0.000000 0.000000
							CHANNELS 3 Xrotation Yrotation Zrotation
							JOINT RightHand
							{
								OFFSET -23.009392 0.000000 0.000000
								CHANNELS 3 Xrotation Yrotation Zrotation
								JOINT RightHandThumb1
								{
									OFFSET -3.507191 -2.063065 3.133727
									CHANNELS 3 Xrotation Yrotation Zrotation
									JOINT RightHandThumb2
									{
										OFFSET -3.101337 -1.790558 1.790558
										CHANNELS 3 Xrotation Yrotation Zrotation
										JOINT RightHandThumb3
										{
											OFFSET -3.058640 -1.765907 1.765906
											CHANNELS 3 Xrotation Yrotation Zrotation
											End Site
											{
												OFFSET 0.415260 3.926476 -0.049563
											}
										}
									}
								}
								JOINT RightHandIndex1
								{
									OFFSET -11.334419 -0.901459 3.706815
									CHANNELS 3 Xrotation Yrotation Zrotation
									JOINT RightHandIndex2
									{
										OFFSET -3.283112 0.000000 0.000000
										CHANNELS 3 Xrotation Yrotation Zrotation
										JOINT RightHandIndex3
										{
											OFFSET -3.323853 0.000000 0.000000
											CHANNELS 3 Xrotation Yrotation Zrotation
											End Site
											{
												OFFSET 1.135597 3.097809 0.402452
											}
										}
									}
								}
								JOINT RightHandMiddle1
								{
									OFFSET -11.335861 0.000000 0.000000
									CHANNELS 3 Xrotation Yrotation Zrotation
									JOINT RightHandMiddle2
									{
										OFFSET -3.410492 0.000000 0.000000
										CHANNELS 3 Xrotation Yrotation Zrotation
										JOINT RightHandMiddle3
										{
											OFFSET -3.312172 0.000000 0.000000
											CHANNELS 3 Xrotation Yrotation Zrotation
											End Site
											{
												OFFSET 1.150200 3.080154 0.400270
											}
										}
									}
								}
								JOINT RightHandRing1
								{
									OFFSET -11.514786 -0.013176 -3.003090
									CHANNELS 3 Xrotation Yrotation Zrotation
									JOINT RightHandRing2
									{
										OFFSET -3.053307 0.000000 0.000000
										CHANNELS 3 Xrotation Yrotation Zrotation
										JOINT RightHandRing3
										{
											OFFSET -3.295807 0.000000 0.000000
											CHANNELS 3 Xrotation Yrotation Zrotation
											End Site
											{
												OFFSET 1.281006 3.013344 0.375733
											}
										}
									}
								}
								JOINT RightHandPinky1
								{
									OFFSET -10.518692 -0.960396 -5.730441
									CHANNELS 3 Xrotation Yrotation Zrotation
									JOINT RightHandPinky2
									{
										OFFSET -2.861649 0.000000 0.000000
										CHANNELS 3 Xrotation Yrotation Zrotation
										JOINT RightHandPinky3
										{
											OFFSET -2.863380 0.000000 0.000000
											CHANNELS 3 Xrotation Yrotation Zrotation
											End Site
											{
												OFFSET 0.843597 2.711159 0.369971
											}
										}
									}
								}
							}
							JOINT RSleeve
							{
								OFFSET -6.676277 -0.344902 -1.011730
								CHANNELS 3 Xrotation Yrotation Zrotation
								End Site
								{
									OFFSET 0.000000 14.885353 0.000000
								}
							}
						}
					}
				}
				JOINT Backpack
				{
					OFFSET 0.000000 -2.471497 36.677502
					CHANNELS 3 Xrotation Yrotation Zrotation
					End Site
					{
						OFFSET 0.000000 20.427315 0.000000
					}
				}
				JOINT Hood
				{
					OFFSET 0.000000 18.754097 -10.431000
					CHANNELS 3 Xrotation Yrotation Zrotation
					JOINT Hood1
					{
						OFFSET 0.000000 -5.011002 -7.685901
						CHANNELS 3 Xrotation Yrotation Zrotation
						End Site
						{
							OFFSET 0.000000 9.175140 0.000000
						}
					}
				}
				JOINT LHoodieString
				{
					OFFSET 5.250500 16.397697 3.089900
					CHANNELS 3 Xrotation Yrotation Zrotation
					JOINT LHoodieString1
					{
						OFFSET 0.257700 -6.364304 3.694600
						CHANNELS 3 Xrotation Yrotation Zrotation
						JOINT LHoodieString2
						{
							OFFSET 0.000000 -9.643799 2.679100
							CHANNELS 3 Xrotation Yrotation Zrotation
							End Site
							{
								OFFSET 0.000000 10.009018 0.000000
							}
						}
					}
				}
				JOINT RHoodieString
				{
					OFFSET -5.250500 16.397697 3.089900
					CHANNELS 3 Xrotation Yrotation Zrotation
					JOINT RHoodieString1
					{
						OFFSET -0.257700 -6.364304 3.694600
						CHANNELS 3 Xrotation Yrotation Zrotation
						JOINT RHoodieString2
						{
							OFFSET 0.000000 -9.643799 2.679100
							CHANNELS 3 Xrotation Yrotation Zrotation
							End Site
							{
								OFFSET 0.000000 10.009018 0.000000
							}
						}
					}
				}
			}
			JOINT LBackpack_Strap
			{
				OFFSET 15.223200 -7.719803 -6.610900
				CHANNELS 3 Xrotation Yrotation Zrotation
				End Site
				{
					OFFSET 0.000000 16.040596 0.000000
				}
			}
			JOINT RBackpack_Strap
			{
				OFFSET -15.223000 -7.719803 -6.610900
				CHANNELS 3 Xrotation Yrotation Zrotation
				End Site
				{
					OFFSET 0.000000 16.040596 0.000000
				}
			}
		}
	}
	JOINT BoyFacialAnim_Joint
	{
		OFFSET 1.000000 -82.208099 -1.550900
		CHANNELS 3 Xrotation Yrotation Zrotation
		End Site
		{
			OFFSET 0.000000 30.012791 0.000000
		}
	}
}
MOTION
Frames: 4
Frame Time: 0.033333
-9.804834 74.293243 74.794456 -182.903109 -176.307427 172.705582 -0.000000 0.000000 0.000001 -29.180498 4.244337 14.737052 59.644203 -3.054831 4.431860 -28.167605 -1.660601 -8.849508 -0.000000 -0.000000 0.000000 -0.000000 -0.000000 0.000000 -0.000001 0.000000 -0.000000 -24.796674 3.964878 -8.008210 56.934859 -8.118645 1.601941 -6.712848 -9.807320 14.526467 0.000001 0.000001 -0.000001 0.000001 0.000001 -0.000001 0.000000 -0.000000 -0.000003 1.344734 0.795850 6.196720 1.669177 0.132996 0.659767 1.669548 0.115091 0.662392 7.035998 -0.215790 0.264615 24.007746 -0.562918 0.027570 0.000003 0.000000 -0.000000 0.000003 0.000000 -0.000000 0.000003 0.000000 -0.000000 4.312606 -9.655927 1.184732 -16.671667 19.074417 -48.016240 -0.000023 -59.851657 -0.000014 2.821732 11.935629 46.045020 -3.172586 9.877417 15.387040 4.477756 14.470043 1.238840 -0.000001 0.000001 -0.000001 0.425547 -2.387390 20.210712 0.000002 0.000002 -0.000033 0.000001 0.000000 -0.000005 0.292230 -1.988407 16.719574 -0.000013 -0.000064 0.000070 -0.000002 0.000003 -0.000003 0.233039 -1.779630 14.919409 0.000580 0.089696 -0.743279 -0.000006 -0.000001 -0.000002 -0.705934 2.535877 12.434014 0.040998 -3.212455 -7.504331 -0.000001 -0.000001 0.000001 -0.000001 -0.000000 -0.000002 2.665375 9.493304 4.476256 -3.244028 -22.035302 43.837916 -0.000003 64.208600 -0.000016 -10.010024 -15.753445 -19.671338 -2.705206 -5.006346 -15.278594 5.520333 -18.554554 -0.893427 -0.000004 0.000000 -0.000000 0.375047 -2.256884 18.867877 0.028731 -0.632782 5.199682 0.000003 -0.000002 0.000001 0.375048 -2.256887 18.867877 0.323320 -2.099556 17.507098 0.000002 0.000002 0.000000 0.646639 -2.933008 24.861136 0.254210 -1.866514 15.510161 0.000001 0.000002 0.000001 1.282714 -4.028983 35.307611 0.027610 -0.620358 5.097389 0.000001 0.000002 -0.000003 0.000002 -0.000001 -0.000002 -0.000000 -0.000000 0.000000 -0.000000 -0.000000 0.000000 -0.000000 -0.000000 0.000000 -0.000000 -0.000000 0.000000 -0.000000 -0.000000 0.000000 -0.000000 -0.000000 0.000000 -0.000000 -0.000000 0.000000 -0.000000 -0.000000 0.000000 -0.000000 -0.000000 0.000000 0.000000 0.000000 -0.000000 0.000000 0.000000 -0.000000 -0.000000 0.000000 0.000001 
-9.668543 74.208488 74.909317 -180.573796 -174.904056 174.436638 0.000000 -0.000000 0.000000 -30.938418 4.953327 13.604713 59.192154 -3.208499 3.225208 -28.098288 -0.974658 -7.952442 -0.000000 -0.000000 -0.000000 -0.000000 -0.000000 0.000000 0.000000 0.000000 0.000000 -28.552515 3.423697 -10.241946 58.121631 -7.801248 1.121367 -6.686605 -7.664545 13.639756 0.000001 0.000000 0.000000 0.000001 0.000000 0.000000 0.000001 0.000001 -0.000000 -2.177619 0.901226 4.435301 1.939775 0.173801 0.600738 1.939668 0.153884 0.605500 7.128221 -0.173842 0.186676 24.640145 -0.503046 0.220771 -0.000001 -0.000000 -0.000000 -0.000001 -0.000000 -0.000000 -0.000001 -0.000000 -0.000000 4.015467 -8.819072 0.598336 -16.130013 18.769778 -47.384164 -0.000015 -58.900935 -0.000001 3.285092 12.131573 46.045901 -3.172583 9.877420 15.387040 4.477760 14.470046 1.238839 -0.000001 -0.000001 0.000001 0.449947 -2.452569 20.788297 0.000003 0.000024 -0.000038 -0.000002 0.000002 -0.000003 0.312600 -2.054938 17.296846 0.000003 -0.000058 -0.000029 0.000003 0.000003 -0.000003 0.236929 -1.794121 15.043944 0.000319 0.067152 -0.556487 -0.000001 0.000001 -0.000004 -0.711411 2.519337 12.558369 0.038096 -3.234814 -7.317699 -0.000000 0.000001 -0.000000 -0.000001 -0.000001 0.000000 2.695048 9.653977 4.648460 -3.191960 -20.881203 44.867120 0.000010 63.530868 -0.000012 -9.687257 -15.811871 -19.588238 -2.705200 -5.006348 -15.278590 5.520336 -18.554557 -0.893428 0.000001 0.000001 0.000001 0.352916 -2.191118 18.297679 0.027624 -0.620363 5.097368 -0.000000 0.000001 -0.000002 0.352924 -2.191119 18.297687 0.319582 -2.087678 17.404674 0.000003 0.000001 -0.000000 0.613002 -2.859375 24.195218 0.245012 -1.833070 15.225183 0.000001 0.000001 0.000002 1.236214 -3.962653 34.640151 0.024617 -0.585804 4.812672 -0.000001 -0.000001 0.000000 -0.000000 -0.000002 -0.000004 -0.000000 -0.000000 -0.000000 -0.000000 -0.000000 -0.000000 -0.000000 -0.000000 -0.000000 -0.000000 -0.000000 -0.000000 -0.000000 -0.000000 -0.000000 -0.000000 -0.000000 -0.000000 -0.000000 -0.000000 -0.000000 -0.000000 -0.000000 -0.000000 -0.000000 -0.000000 -0.000000 -0.000000 -0.000000 -0.000000 -0.000000 -0.000000 -0.000000 0.000000 -0.000000 0.000000 
-9.573595 74.164520 74.991913 -178.684483 -174.074433 175.956410 0.000000 -0.000000 -0.000000 -32.206832 5.191098 12.629841 58.607271 -3.257119 1.896939 -27.933416 -0.561176 -7.007570 -0.000000 -0.000000 0.000000 -0.000000 -0.000000 0.000000 0.000001 0.000000 -0.000000 -31.668541 2.390818 -12.072563 58.903763 -5.816715 0.283447 -6.635076 -7.380607 12.616078 0.000001 0.000000 -0.000000 0.000001 0.000000 -0.000000 0.000001 0.000003 0.000001 -4.839253 0.573812 2.653515 2.159232 0.141429 0.844082 2.158789 0.121385 0.848751 7.087716 -0.047235 -0.078946 25.099854 -0.363740 0.265830 -0.000000 0.000000 -0.000000 -0.000000 0.000000 -0.000000 -0.000000 0.000000 -0.000000 3.652229 -7.795122 -0.793612 -16.107343 18.236077 -45.954684 -0.000005 -57.875929 -0.000007 2.237372 12.061572 46.312470 -3.172584 9.877415 15.387040 4.477761 14.470044 1.238838 -0.000002 -0.000000 -0.000001 0.459590 -2.477832 21.012846 0.000009 0.000007 -0.000043 -0.000001 -0.000001 -0.000002 0.320685 -2.080756 17.521271 0.000009 -0.000064 -0.000012 0.000003 0.000000 0.000000 0.237838 -1.797536 15.073208 0.000232 0.059636 -0.494269 0.000001 -0.000004 0.000001 -0.712699 2.515439 12.587588 0.037138 -3.242261 -7.255537 -0.000002 -0.000001 -0.000002 -0.000001 -0.000002 -0.000001 2.750783 9.953751 4.584358 -3.431963 -19.526160 45.543022 -0.000012 62.538728 -0.000000 -9.670130 -15.689004 -19.853644 -2.705200 -5.006353 -15.278592 5.520342 -18.554557 -0.893427 -0.000003 0.000000 -0.000002 0.327943 -2.114112 17.632523 0.024620 -0.585812 4.812670 -0.000002 0.000002 0.000004 0.327938 -2.114110 17.632528 0.309283 -2.054548 17.119640 0.000001 0.000000 -0.000004 0.589865 -2.807364 23.727071 0.234484 -1.793985 14.892741 0.000001 -0.000000 0.000007 1.203977 -3.915698 34.170938 0.021349 -0.545458 4.480528 0.000000 0.000001 -0.000003 0.000000 0.000001 -0.000001 0.000000 0.000000 0.000000 0.000000 0.000000 0.000000 0.000000 0.000000 0.000000 0.000000 0.000000 0.000000 0.000000 0.000000 -0.000000 0.000000 0.000000 0.000000 0.000000 0.000000 0.000000 0.000000 0.000000 -0.000000 0.000000 0.000000 0.000000 0.000000 -0.000000 -0.000000 0.000000 -0.000000 -0.000000 0.000000 -0.000000 -0.000000 
-9.507114 74.165466 75.049973 -177.710007 -173.720438 176.965352 -0.000000 0.000000 -0.000000 -32.624634 4.897917 11.998149 58.065528 -3.182390 0.502800 -27.686850 -0.371669 -6.069389 -0.000000 -0.000000 0.000000 -0.000000 -0.000000 0.000000 0.000003 0.000000 0.000000 -33.330507 1.492697 -13.353127 59.215527 -4.467666 -0.420556 -6.692951 -7.128805 12.090366 0.000000 0.000001 0.000000 0.000000 0.000001 0.000000 -0.000002 -0.000001 0.000000 -6.114357 0.064972 1.123144 2.365508 0.077785 1.273947 2.365364 0.057245 1.276306 6.876905 0.151468 -0.475371 25.248436 -0.123066 0.256106 0.000001 -0.000000 0.000000 0.000001 -0.000000 0.000000 0.000001 -0.000000 0.000000 3.345865 -6.853616 -2.687627 -16.443510 17.126438 -43.722937 0.000027 -56.676117 0.000019 -0.669915 11.761546 47.119709 -3.172587 9.877416 15.387040 4.477764 14.470041 1.238838 -0.000003 -0.000001 0.000001 0.462342 -2.484952 21.076258 -0.000014 0.000006 -0.000099 -0.000003 -0.000001 -0.000005 0.322988 -2.088038 17.584655 0.000001 -0.000056 0.000057 -0.000001 -0.000001 0.000000 0.238693 -1.800715 15.100510 0.000227 0.057868 -0.479644 0.000006 -0.000001 -0.000001 -0.713899 2.511807 12.614844 0.036915 -3.244001 -7.240923 0.000000 -0.000001 0.000003 -0.000001 -0.000001 -0.000003 2.778169 10.084026 4.272222 -3.863756 -17.479503 46.119684 0.000007 61.068701 -0.000029 -9.815826 -14.649074 -20.277401 -2.705206 -5.006350 -15.278590 5.520337 -18.554557 -0.893428 -0.000004 0.000001 -0.000000 0.310911 -2.059810 17.164906 0.021346 -0.545470 4.480552 -0.000001 0.000000 0.000005 0.310923 -2.059813 17.164904 0.297465 -2.015833 16.787136 0.000001 0.000004 -0.000005 0.582012 -2.789455 23.566186 0.227223 -1.766464 14.659053 -0.000002 -0.000003 0.000001 1.192978 -3.899499 34.009684 0.019167 -0.517072 4.247026 -0.000000 -0.000001 -0.000002 0.000000 -0.000000 -0.000002 0.000000 0.000000 -0.000000 0.000000 0.000000 -0.000000 0.000000 0.000000 -0.000000 0.000000 0.000000 -0.000000 0.000000 0.000000 -0.000000 0.000000 0.000000 0.000000 0.000000 0.000000 -0.000000 0.000000 0.000000 -0.000000 0.000000 0.000000 0.000000 -0.000000 0.000000 -0.000000 -0.000000 0.000000 -0.000000 -0.000000 0.000000 -0.000000 
